<svg width="951" height="951" viewBox="0 0 951 951" fill="none" xmlns="http://www.w3.org/2000/svg">
<path d="M488.148 195.495C492.202 192.142 496.877 189.62 501.906 188.074C506.935 186.528 512.219 185.987 517.457 186.483C522.694 186.979 527.783 188.502 532.432 190.965C537.081 193.427 541.2 196.782 544.552 200.836C575.837 238.805 637.569 327.751 662.092 370.401C717.641 466.651 751.879 565.251 761.12 647.934C765.713 689.222 764.324 728.534 754.71 762.238C744.936 796.155 726.027 826.868 694.3 845.188C655.896 867.355 611.51 864.257 570.969 849.461C530.269 834.613 488.339 806.571 448.386 770.09C440.658 762.898 436.081 752.947 435.65 742.399C435.218 731.851 438.968 721.559 446.084 713.761C453.199 705.963 463.105 701.289 473.649 700.754C484.192 700.22 494.52 703.869 502.387 710.908C537.64 743.063 570.702 764.107 598.37 774.149C626.252 784.297 643.771 781.894 654.24 775.805C663 770.731 671.867 760.422 677.635 740.178C683.511 719.668 685.38 691.572 681.481 656.854C673.736 587.47 644.092 499.446 592.655 410.46C570.393 371.744 511.252 286.533 482.86 252.06C479.507 248.005 476.986 243.33 475.439 238.302C473.893 233.273 473.352 227.989 473.848 222.751C474.344 217.513 475.867 212.425 478.33 207.776C480.793 203.126 484.147 199.008 488.202 195.655" fill="#00D8FF"/>
<path d="M722.082 634.77C722.963 639.957 722.814 645.267 721.642 650.396C720.471 655.525 718.3 660.374 715.255 664.664C712.209 668.954 708.349 672.603 703.893 675.401C699.437 678.199 694.474 680.092 689.287 680.972C640.759 689.026 524.501 695.673 475.309 695.581C364.21 695.581 261.657 675.978 185.437 642.595C147.354 625.984 114.077 605.099 89.7209 579.888C65.0975 554.57 48.0054 522.736 48.0054 486.148C48.0054 441.815 72.8958 404.96 105.958 377.186C139.181 349.357 184.476 327.084 236.019 310.74C246.148 307.524 257.139 308.464 266.575 313.352C271.247 315.772 275.397 319.089 278.787 323.114C282.178 327.138 284.742 331.79 286.334 336.805C287.926 341.821 288.515 347.1 288.067 352.343C287.619 357.586 286.142 362.689 283.722 367.361C281.302 372.034 277.985 376.183 273.961 379.573C269.936 382.964 265.284 385.528 260.269 387.121C214.868 401.542 180.042 419.649 157.502 438.611C134.748 457.626 128.125 474.023 128.125 486.148C128.125 496.297 132.665 509.116 147.3 524.232C162.149 539.561 185.544 555.211 217.538 569.205C281.474 597.194 372.543 615.461 475.309 615.461C522.58 615.461 634.699 608.971 675.88 601.974C681.067 601.093 686.377 601.243 691.506 602.414C696.636 603.586 701.484 605.756 705.774 608.802C710.065 611.847 713.713 615.708 716.511 620.164C719.31 624.619 721.203 629.582 722.082 634.77Z" fill="#00D8FF"/>
<path d="M722.082 634.77C722.963 639.957 722.814 645.267 721.642 650.396C720.471 655.525 718.3 660.374 715.255 664.664C712.209 668.954 708.349 672.603 703.893 675.401C699.437 678.199 694.474 680.092 689.287 680.972C640.759 689.026 524.501 695.673 475.309 695.581C364.21 695.581 261.657 675.978 185.437 642.595C147.354 625.984 114.077 605.099 89.7209 579.888C65.0975 554.57 48.0054 522.736 48.0054 486.148C48.0054 441.815 72.8958 404.96 105.958 377.186C139.181 349.357 184.476 327.084 236.019 310.74C246.148 307.524 257.139 308.464 266.575 313.352C271.247 315.772 275.397 319.089 278.787 323.114C282.178 327.138 284.742 331.79 286.334 336.805C287.926 341.821 288.515 347.1 288.067 352.343C287.619 357.586 286.142 362.689 283.722 367.361C281.302 372.034 277.985 376.183 273.961 379.573C269.936 382.964 265.284 385.528 260.269 387.121C214.868 401.542 180.042 419.649 157.502 438.611C134.748 457.626 128.125 474.023 128.125 486.148C128.125 496.297 132.665 509.116 147.3 524.232C162.149 539.561 185.544 555.211 217.538 569.205C281.474 597.194 372.543 615.461 475.309 615.461C522.58 615.461 634.699 608.971 675.88 601.974C681.067 601.093 686.377 601.243 691.506 602.414C696.636 603.586 701.484 605.756 705.774 608.802C710.065 611.847 713.713 615.708 716.511 620.164C719.31 624.619 721.203 629.582 722.082 634.77Z" stroke="#00D8FF"/>
<path d="M232.1 618.779C222.142 615.08 214.061 607.578 209.634 597.922C205.207 588.266 204.796 577.247 208.492 567.288C224.622 523.757 274.637 415.105 300.435 370.452C355.985 274.202 424.247 195.257 491.227 145.903C524.663 121.28 559.382 102.853 593.406 94.3599C627.644 85.8139 663.751 86.8287 695.425 105.149C733.882 127.316 753.324 167.269 760.802 209.839C768.333 252.516 764.969 302.831 753.324 355.656C752.382 360.97 750.376 366.039 747.426 370.558C744.476 375.078 740.644 378.954 736.159 381.956C731.673 384.957 726.628 387.021 721.325 388.024C716.022 389.027 710.572 388.949 705.3 387.793C700.029 386.637 695.045 384.428 690.648 381.298C686.252 378.168 682.533 374.182 679.715 369.58C676.897 364.977 675.038 359.852 674.25 354.514C673.462 349.175 673.76 343.731 675.128 338.511C685.33 291.935 687.039 252.73 681.911 223.673C676.784 194.509 665.887 180.569 655.418 174.533C646.659 169.459 633.252 166.948 612.848 172.076C592.124 177.257 566.913 189.702 538.764 210.426C482.574 251.768 421.149 321.525 369.819 410.512C347.373 449.169 299.286 553.315 283.59 595.17C279.892 605.128 272.39 613.209 262.734 617.636C253.078 622.063 242.059 622.474 232.1 618.779Z" fill="#00D8FF"/>
<path d="M232.1 618.779C222.142 615.08 214.061 607.578 209.634 597.922C205.207 588.266 204.796 577.247 208.492 567.288C224.622 523.757 274.637 415.105 300.435 370.452C355.985 274.202 424.247 195.257 491.227 145.903C524.663 121.28 559.382 102.853 593.406 94.3599C627.644 85.8139 663.751 86.8287 695.425 105.149C733.882 127.316 753.324 167.269 760.802 209.839C768.333 252.516 764.969 302.831 753.324 355.656C752.382 360.97 750.376 366.039 747.426 370.558C744.476 375.078 740.644 378.954 736.159 381.956C731.673 384.957 726.628 387.021 721.325 388.024C716.022 389.027 710.572 388.949 705.3 387.793C700.029 386.637 695.045 384.428 690.648 381.298C686.252 378.168 682.533 374.182 679.715 369.58C676.897 364.977 675.038 359.852 674.25 354.514C673.462 349.175 673.76 343.731 675.128 338.511C685.33 291.935 687.039 252.73 681.911 223.673C676.784 194.509 665.887 180.569 655.418 174.533C646.659 169.459 633.252 166.948 612.848 172.076C592.124 177.257 566.913 189.702 538.764 210.426C482.574 251.768 421.149 321.525 369.819 410.512C347.373 449.169 299.286 553.315 283.59 595.17C279.892 605.128 272.39 613.209 262.734 617.636C253.078 622.063 242.059 622.474 232.1 618.779Z" stroke="#00D8FF"/>
<path d="M238.392 594.021L306.977 539.137C292.674 580.632 303.609 596.131 361.862 607.722L293.277 662.607L238.392 594.021Z" fill="#00D8FF"/>
<path d="M188.602 613.692L155.635 532.271C191.303 557.849 209.283 551.805 237.056 499.304L270.023 580.725L188.602 613.692Z" fill="#00D8FF"/>
<path d="M518.126 159.48L604.686 174.435C564.138 191.239 559.786 209.52 589.73 260.814L503.171 246.04L518.126 159.48Z" fill="#00D8FF"/>
<path d="M731.515 675.88L676.407 744.355C686.656 702.207 667.568 688.14 608.19 689.54L662.986 620.924L731.515 675.88Z" fill="#00D8FF"/>
<path d="M524.922 221.026L525.047 308.384C501.147 271.57 463.575 272.732 438.126 309.903L437.086 222.067L524.922 221.026Z" fill="#00D8FF"/>
<path d="M720.331 598.21L653.595 541.09C666.521 583.036 655.117 600.421 596.514 610.082L663.211 664.945L720.331 598.21Z" fill="#00D8FF"/>
<circle cx="479.859" cy="475.233" r="39.7722" fill="#00D8FF"/>
</svg>
