<svg width="136" height="27" viewBox="0 0 136 27" fill="none" xmlns="http://www.w3.org/2000/svg">
<path d="M34.1942 20.2069V7.32944H37.3624L37.6946 9.70564C38.0182 9.14353 38.41 8.66658 38.8699 8.27481C39.3298 7.88304 39.8664 7.57643 40.4796 7.35499C41.0928 7.13356 41.7571 7.02284 42.4725 7.02284V10.8043H41.2717C40.7606 10.8043 40.2837 10.8639 39.8408 10.9832C39.415 11.1024 39.0403 11.2983 38.7166 11.5708C38.41 11.8263 38.1715 12.184 38.0012 12.6439C37.8479 13.0868 37.7712 13.6489 37.7712 14.3303V20.2069H34.1942Z" fill="white"/>
<path d="M49.7043 20.5135C48.4098 20.5135 47.26 20.2409 46.255 19.6959C45.2671 19.1338 44.492 18.3587 43.9299 17.3708C43.3678 16.3658 43.0868 15.2075 43.0868 13.8959C43.0868 12.5673 43.3593 11.392 43.9044 10.3699C44.4665 9.3309 45.2415 8.51328 46.2295 7.9171C47.2345 7.32093 48.4013 7.02284 49.7299 7.02284C51.0074 7.02284 52.1231 7.30389 53.077 7.866C54.0479 8.42811 54.7974 9.18611 55.3254 10.14C55.8705 11.0939 56.143 12.1925 56.143 13.436C56.143 13.6063 56.1345 13.7937 56.1175 13.9981C56.1175 14.2025 56.1005 14.424 56.0664 14.6624H45.9756V12.4906H52.5149C52.4638 11.7071 52.1742 11.0854 51.6462 10.6255C51.1352 10.1485 50.4964 9.91004 49.7299 9.91004C49.1507 9.91004 48.6227 10.0463 48.1458 10.3188C47.6688 10.5914 47.2941 10.9917 47.0215 11.5197C46.749 12.0478 46.6127 12.7206 46.6127 13.5382V14.2792C46.6127 14.9435 46.7405 15.5311 46.996 16.0421C47.2515 16.5361 47.6092 16.9194 48.0691 17.1919C48.529 17.4645 49.0656 17.6007 49.6788 17.6007C50.292 17.6007 50.7945 17.473 51.1863 17.2175C51.5951 16.962 51.9017 16.6298 52.1061 16.221H55.7598C55.5213 17.0216 55.1125 17.7455 54.5334 18.3928C53.9713 19.0401 53.2814 19.5596 52.4638 19.9514C51.6462 20.3261 50.7263 20.5135 49.7043 20.5135Z" fill="white"/>
<path d="M61.804 20.5135C60.7479 20.5135 59.8622 20.3431 59.1468 20.0025C58.4484 19.6448 57.9289 19.1763 57.5882 18.5972C57.2645 18.001 57.1027 17.3452 57.1027 16.6298C57.1027 15.8633 57.2986 15.1819 57.6904 14.5858C58.0822 13.9896 58.6868 13.5212 59.5045 13.1805C60.3221 12.8398 61.3441 12.6695 62.5705 12.6695H65.7388C65.7388 12.0563 65.6536 11.5538 65.4833 11.162C65.33 10.7532 65.0745 10.4466 64.7168 10.2422C64.3761 10.0378 63.9162 9.93559 63.337 9.93559C62.7068 9.93559 62.1702 10.0719 61.7273 10.3444C61.3015 10.6169 61.0375 11.0257 60.9353 11.5708H57.4604C57.5626 10.651 57.8692 9.85894 58.3802 9.19463C58.8912 8.51328 59.5726 7.98524 60.4243 7.6105C61.293 7.21873 62.2724 7.02284 63.3626 7.02284C64.572 7.02284 65.6195 7.22724 66.5053 7.63605C67.4081 8.04486 68.0979 8.63252 68.5749 9.39903C69.0688 10.1655 69.3158 11.1109 69.3158 12.2351V20.2069H65.891L65.8921 18.265C65.7217 18.6057 65.5003 18.9123 65.2278 19.1849C64.9723 19.4574 64.6742 19.6959 64.3335 19.9003C63.9928 20.0876 63.6096 20.2324 63.1837 20.3346C62.7749 20.4539 62.315 20.5135 61.804 20.5135ZM62.6727 17.754C63.0986 17.754 63.4818 17.6859 63.8225 17.5496C64.1632 17.3963 64.4527 17.1834 64.6912 16.9109C64.9297 16.6383 65.1256 16.3317 65.2789 15.991C65.4322 15.6333 65.5344 15.2501 65.5855 14.8413V14.8157H63.0049C62.5109 14.8157 62.1021 14.8839 61.7785 15.0201C61.4718 15.1394 61.2419 15.3182 61.0886 15.5567C60.9353 15.7781 60.8586 16.0336 60.8586 16.3232C60.8586 16.6298 60.9353 16.8938 61.0886 17.1153C61.2419 17.3367 61.4548 17.4985 61.7273 17.6007C61.9999 17.7029 62.315 17.754 62.6727 17.754Z" fill="white"/>
<path d="M77.3057 20.5135C76.0111 20.5135 74.8613 20.2239 73.8564 19.6448C72.8514 19.0656 72.0593 18.2736 71.4802 17.2686C70.9181 16.2636 70.637 15.1138 70.637 13.8193C70.637 12.4906 70.9181 11.3238 71.4802 10.3188C72.0593 9.29683 72.8514 8.49625 73.8564 7.9171C74.8613 7.32093 76.0196 7.02284 77.3312 7.02284C78.9835 7.02284 80.3717 7.46571 81.4959 8.35146C82.6372 9.22018 83.3611 10.421 83.6677 11.9541H79.8607C79.7244 11.3749 79.4178 10.9235 78.9409 10.5999C78.481 10.2592 77.9274 10.0889 77.2801 10.0889C76.701 10.0889 76.1814 10.2422 75.7215 10.5488C75.2787 10.8384 74.9295 11.2557 74.674 11.8008C74.4185 12.3458 74.2907 13.0016 74.2907 13.7682C74.2907 14.3473 74.3588 14.8668 74.4951 15.3267C74.6484 15.7696 74.8528 16.1529 75.1083 16.4765C75.3809 16.8001 75.7045 17.0471 76.0792 17.2175C76.454 17.3878 76.8543 17.473 77.2801 17.473C77.723 17.473 78.1148 17.4048 78.4554 17.2686C78.7961 17.1153 79.0942 16.9023 79.3497 16.6298C79.6052 16.3402 79.7755 15.9996 79.8607 15.6078H83.6677C83.3611 17.1068 82.6372 18.2991 81.4959 19.1849C80.3547 20.0706 78.9579 20.5135 77.3057 20.5135Z" fill="white"/>
<path d="M90.4954 20.2069C89.5756 20.2069 88.7665 20.0621 88.0681 19.7725C87.3868 19.4829 86.8587 19.006 86.484 18.3417C86.1093 17.6774 85.9219 16.7746 85.9219 15.6333V10.3188H84.7767V7.32944L85.9187 7.33017L85.9159 3.77793H89.499V7.32944H92.8461V10.3188H89.499V15.6589C89.499 16.221 89.6182 16.6128 89.8567 16.8342C90.1122 17.0556 90.538 17.1664 91.1342 17.1664H92.8205V20.2069H90.4954Z" fill="white"/>
<path d="M102.207 20.5135C101.543 20.5135 100.955 20.4283 100.444 20.258C99.9331 20.1047 99.4817 19.8832 99.0899 19.5937C98.6982 19.3041 98.366 18.9719 98.0935 18.5972L98.094 20.2069H94.5164V1.81055H98.0935V9.09243C98.4852 8.49625 99.0133 8.00227 99.6776 7.6105C100.359 7.21873 101.194 7.02284 102.182 7.02284C103.357 7.02284 104.404 7.32093 105.324 7.9171C106.261 8.49625 106.994 9.29683 107.522 10.3188C108.067 11.3238 108.339 12.4821 108.339 13.7937C108.339 15.0712 108.067 16.221 107.522 17.243C106.994 18.265 106.27 19.0656 105.35 19.6448C104.43 20.2239 103.382 20.5135 102.207 20.5135ZM101.338 17.3963C101.986 17.3963 102.565 17.243 103.076 16.9364C103.587 16.6298 103.987 16.204 104.277 15.6589C104.566 15.1138 104.711 14.4921 104.711 13.7937C104.711 13.0783 104.566 12.4481 104.277 11.903C103.987 11.3579 103.587 10.9321 103.076 10.6255C102.565 10.3018 101.986 10.14 101.338 10.14C100.674 10.14 100.086 10.3018 99.5754 10.6255C99.0814 10.9321 98.6896 11.3579 98.4001 11.903C98.1105 12.431 97.9657 13.0527 97.9657 13.7682C97.9657 14.4836 98.1105 15.1138 98.4001 15.6589C98.6896 16.204 99.0814 16.6298 99.5754 16.9364C100.086 17.243 100.674 17.3963 101.338 17.3963Z" fill="white"/>
<path d="M109.889 20.2069V7.32944H113.466V20.2069H109.889Z" fill="white"/>
<path d="M130.515 20.5135C129.322 20.5135 128.292 20.3261 127.423 19.9514C126.554 19.5596 125.873 19.0401 125.379 18.3928C124.885 17.7285 124.595 16.979 124.51 16.1444H128.087C128.155 16.451 128.283 16.732 128.471 16.9875C128.675 17.226 128.939 17.4219 129.263 17.5752C129.603 17.7285 130.004 17.8051 130.464 17.8051C130.906 17.8051 131.264 17.7455 131.537 17.6263C131.826 17.49 132.039 17.3197 132.175 17.1153C132.329 16.9109 132.405 16.6894 132.405 16.451C132.405 16.1103 132.303 15.8463 132.099 15.6589C131.894 15.4715 131.596 15.3182 131.204 15.199C130.813 15.0797 130.344 14.969 129.799 14.8668C129.186 14.7306 128.581 14.5773 127.985 14.4069C127.406 14.2366 126.878 14.0151 126.401 13.7426C125.941 13.453 125.575 13.0953 125.302 12.6695C125.03 12.2436 124.894 11.7156 124.894 11.0854C124.894 10.3188 125.098 9.62899 125.507 9.01577C125.933 8.40256 126.537 7.9171 127.321 7.5594C128.121 7.20169 129.075 7.02284 130.182 7.02284C131.75 7.02284 132.984 7.38055 133.887 8.09596C134.807 8.79434 135.352 9.74822 135.522 10.9576H132.15C132.065 10.5829 131.852 10.2933 131.511 10.0889C131.17 9.88449 130.719 9.78229 130.157 9.78229C129.578 9.78229 129.126 9.88449 128.803 10.0889C128.496 10.2933 128.343 10.5658 128.343 10.9065C128.343 11.1279 128.445 11.3323 128.649 11.5197C128.854 11.6901 129.143 11.8434 129.518 11.9796C129.91 12.0989 130.387 12.2181 130.949 12.3373C131.954 12.5417 132.831 12.7802 133.581 13.0527C134.33 13.3083 134.918 13.683 135.344 14.177C135.769 14.6539 135.982 15.3523 135.982 16.2721C135.999 17.0897 135.778 17.8222 135.318 18.4694C134.875 19.1167 134.245 19.6192 133.427 19.9769C132.61 20.3346 131.639 20.5135 130.515 20.5135Z" fill="white"/>
<path d="M120.717 20.2069C119.797 20.2069 118.988 20.0621 118.29 19.7725C117.609 19.483 117.081 19.006 116.706 18.3417C116.331 17.6774 116.144 16.7746 116.144 15.6334V10.3189H114.999V7.32946L116.14 7.33019L116.138 3.77795H119.721V7.32946H123.068V10.3189H119.721V15.6589C119.721 16.221 119.84 16.6128 120.078 16.8342C120.334 17.0557 120.76 17.1664 121.356 17.1664H123.042V20.2069H120.717Z" fill="white"/>
<rect x="109.887" y="1.81055" width="3.57886" height="3.57901" fill="white"/>
<path d="M15.5602 4.25878C15.6955 4.14691 15.8515 4.06277 16.0192 4.01118C16.187 3.95959 16.3633 3.94155 16.5381 3.9581C16.7128 3.97465 16.8826 4.02546 17.0377 4.10763C17.1928 4.1898 17.3303 4.30172 17.4421 4.43699C18.4859 5.7038 20.5456 8.67142 21.3638 10.0944C23.2171 13.3058 24.3595 16.5955 24.6678 19.3542C24.821 20.7317 24.7747 22.0434 24.4539 23.1679C24.1278 24.2995 23.4969 25.3242 22.4384 25.9355C21.157 26.675 19.6761 26.5717 18.3235 26.078C16.9655 25.5826 15.5361 25.0333 14.2031 23.8162C13.9452 23.5762 13.7925 23.2442 13.7781 22.8923C13.7637 22.5404 13.8888 22.197 14.1262 21.9368C14.3636 21.6766 14.6942 21.5207 15.0459 21.5028C15.3977 21.485 15.7423 21.6067 16.0048 21.8416C17.181 22.9144 18.3146 23.2302 19.2377 23.5653C20.168 23.9039 20.7525 23.8237 21.1018 23.6205C21.394 23.4512 21.6899 23.1073 21.8823 22.4319C22.0784 21.7475 22.1408 20.8102 22.0107 19.6518C21.7523 17.3368 20.7632 14.4 19.047 11.431C18.3043 10.1392 16.3311 7.29622 15.3838 6.14603C15.2719 6.01076 15.1878 5.85478 15.1362 5.687C15.0846 5.51922 15.0666 5.34292 15.0831 5.16817C15.0997 4.99341 15.1505 4.82363 15.2326 4.66852C15.3148 4.5134 15.4267 4.37599 15.562 4.26413" fill="#00D8FF"/>
<path d="M23.3654 18.9148C23.3948 19.0878 23.3898 19.265 23.3507 19.4361C23.3116 19.6073 23.2392 19.769 23.1376 19.9122C23.036 20.0553 22.9072 20.1771 22.7586 20.2704C22.6099 20.3638 22.4443 20.4269 22.2713 20.4563C20.6522 20.725 16.7736 20.9468 15.1324 20.9437C11.4258 20.9437 8.0044 20.2897 5.46149 19.1759C4.19092 18.6216 3.08074 17.9248 2.26815 17.0837C1.44664 16.239 0.876404 15.1768 0.876404 13.9561C0.876404 12.477 1.70682 11.2473 2.80987 10.3206C3.91828 9.39215 5.42941 8.64901 7.14904 8.10369C7.48696 7.9964 7.85366 8.02775 8.16847 8.19085C8.32435 8.2716 8.46279 8.38227 8.5759 8.51653C8.68901 8.6508 8.77457 8.80603 8.82769 8.97336C8.88081 9.14069 8.90045 9.31684 8.8855 9.49177C8.87055 9.66669 8.82129 9.83695 8.74054 9.99284C8.65979 10.1487 8.54912 10.2872 8.41487 10.4003C8.28061 10.5134 8.12539 10.599 7.95807 10.6521C6.44337 11.1333 5.28151 11.7374 4.5295 12.37C3.77037 13.0045 3.5494 13.5516 3.5494 13.9561C3.5494 14.2947 3.70087 14.7224 4.18914 15.2267C4.68454 15.7382 5.46505 16.2604 6.53247 16.7273C8.66553 17.6611 11.7038 18.2706 15.1324 18.2706C16.7095 18.2706 20.4501 18.054 21.824 17.8206C21.997 17.7912 22.1742 17.7962 22.3453 17.8353C22.5164 17.8744 22.6782 17.9468 22.8213 18.0484C22.9645 18.15 23.0862 18.2788 23.1795 18.4275C23.2729 18.5761 23.3361 18.7417 23.3654 18.9148Z" fill="#00D8FF"/>
<path d="M23.3654 18.9148C23.3948 19.0878 23.3898 19.265 23.3507 19.4361C23.3116 19.6073 23.2392 19.769 23.1376 19.9122C23.036 20.0553 22.9072 20.1771 22.7586 20.2704C22.6099 20.3638 22.4443 20.4269 22.2713 20.4563C20.6522 20.725 16.7736 20.9468 15.1324 20.9437C11.4258 20.9437 8.0044 20.2897 5.46149 19.1759C4.19092 18.6216 3.08074 17.9248 2.26815 17.0837C1.44664 16.239 0.876404 15.1768 0.876404 13.9561C0.876404 12.477 1.70682 11.2473 2.80987 10.3206C3.91828 9.39215 5.42941 8.64901 7.14904 8.10369C7.48696 7.9964 7.85366 8.02775 8.16847 8.19085C8.32435 8.2716 8.46279 8.38227 8.5759 8.51653C8.68901 8.6508 8.77457 8.80603 8.82769 8.97336C8.88081 9.14069 8.90045 9.31684 8.8855 9.49177C8.87055 9.66669 8.82129 9.83695 8.74054 9.99284C8.65979 10.1487 8.54912 10.2872 8.41487 10.4003C8.28061 10.5134 8.12539 10.599 7.95807 10.6521C6.44337 11.1333 5.28151 11.7374 4.5295 12.37C3.77037 13.0045 3.5494 13.5516 3.5494 13.9561C3.5494 14.2947 3.70087 14.7224 4.18914 15.2267C4.68454 15.7382 5.46505 16.2604 6.53247 16.7273C8.66553 17.6611 11.7038 18.2706 15.1324 18.2706C16.7095 18.2706 20.4501 18.054 21.824 17.8206C21.997 17.7912 22.1742 17.7962 22.3453 17.8353C22.5164 17.8744 22.6782 17.9468 22.8213 18.0484C22.9645 18.15 23.0862 18.2788 23.1795 18.4275C23.2729 18.5761 23.3361 18.7417 23.3654 18.9148Z" stroke="#00D8FF"/>
<path d="M7.01851 18.3816C6.68629 18.2582 6.41669 18.0079 6.26898 17.6857C6.12128 17.3636 6.10757 16.9959 6.23086 16.6637C6.76903 15.2113 8.43764 11.5862 9.29835 10.0963C11.1516 6.88498 13.429 4.25104 15.6637 2.60438C16.7792 1.78283 17.9375 1.16801 19.0726 0.884653C20.2149 0.599517 21.4195 0.633377 22.4762 1.24464C23.7593 1.98421 24.4079 3.31722 24.6574 4.73755C24.9087 6.16145 24.7964 7.84018 24.4079 9.60268C24.3765 9.77997 24.3096 9.94909 24.2112 10.0999C24.1127 10.2507 23.9849 10.38 23.8352 10.4801C23.6856 10.5803 23.5173 10.6491 23.3404 10.6826C23.1634 10.7161 22.9816 10.7135 22.8057 10.6749C22.6298 10.6363 22.4636 10.5626 22.3169 10.4582C22.1702 10.3538 22.0461 10.2208 21.9521 10.0672C21.8581 9.91366 21.7961 9.74268 21.7698 9.56455C21.7435 9.38642 21.7535 9.20481 21.7991 9.03062C22.1394 7.47663 22.1965 6.16857 22.0254 5.19911C21.8543 4.22609 21.4908 3.76096 21.1415 3.55958C20.8493 3.39028 20.402 3.30652 19.7213 3.47761C19.0299 3.65047 18.1888 4.0657 17.2496 4.75715C15.375 6.1365 13.3257 8.46392 11.6132 11.4329C10.8643 12.7227 9.26 16.1975 8.73636 17.5939C8.61296 17.9262 8.36267 18.1958 8.04052 18.3435C7.71838 18.4912 7.35076 18.5049 7.01851 18.3816Z" fill="#00D8FF"/>
<path d="M7.01851 18.3816C6.68629 18.2582 6.41669 18.0079 6.26898 17.6857C6.12128 17.3636 6.10757 16.9959 6.23086 16.6637C6.76903 15.2113 8.43764 11.5862 9.29835 10.0963C11.1516 6.88498 13.429 4.25104 15.6637 2.60438C16.7792 1.78283 17.9375 1.16801 19.0726 0.884653C20.2149 0.599517 21.4195 0.633377 22.4762 1.24464C23.7593 1.98421 24.4079 3.31722 24.6574 4.73755C24.9087 6.16145 24.7964 7.84018 24.4079 9.60268C24.3765 9.77997 24.3096 9.94909 24.2112 10.0999C24.1127 10.2507 23.9849 10.38 23.8352 10.4801C23.6856 10.5803 23.5173 10.6491 23.3404 10.6826C23.1634 10.7161 22.9816 10.7135 22.8057 10.6749C22.6298 10.6363 22.4636 10.5626 22.3169 10.4582C22.1702 10.3538 22.0461 10.2208 21.9521 10.0672C21.8581 9.91366 21.7961 9.74268 21.7698 9.56455C21.7435 9.38642 21.7535 9.20481 21.7991 9.03062C22.1394 7.47663 22.1965 6.16857 22.0254 5.19911C21.8543 4.22609 21.4908 3.76096 21.1415 3.55958C20.8493 3.39028 20.402 3.30652 19.7213 3.47761C19.0299 3.65047 18.1888 4.0657 17.2496 4.75715C15.375 6.1365 13.3257 8.46392 11.6132 11.4329C10.8643 12.7227 9.26 16.1975 8.73636 17.5939C8.61296 17.9262 8.36267 18.1958 8.04052 18.3435C7.71838 18.4912 7.35076 18.5049 7.01851 18.3816Z" stroke="#00D8FF"/>
<path d="M7.23904 17.5557L9.52736 15.7245C9.05013 17.1089 9.41498 17.6261 11.3586 18.0128L9.07024 19.844L7.23904 17.5557Z" fill="#00D8FF"/>
<path d="M5.57831 18.2119L4.47838 15.4953C5.66844 16.3487 6.26832 16.1471 7.19496 14.3954L8.29489 17.112L5.57831 18.2119Z" fill="#00D8FF"/>
<path d="M16.5734 3.05762L19.4615 3.55658C18.1086 4.11724 17.9634 4.72717 18.9625 6.43856L16.0745 5.94564L16.5734 3.05762Z" fill="#00D8FF"/>
<path d="M23.6917 20.2871L21.8531 22.5718C22.195 21.1655 21.5582 20.6962 19.577 20.7429L21.4053 18.4535L23.6917 20.2871Z" fill="#00D8FF"/>
<path d="M16.7997 5.11035L16.8039 8.02499C16.0065 6.7967 14.7529 6.83548 13.9038 8.07567L13.8691 5.14506L16.7997 5.11035Z" fill="#00D8FF"/>
<path d="M23.3192 17.6953L21.0926 15.7895C21.5238 17.189 21.1434 17.7691 19.1881 18.0914L21.4134 19.9219L23.3192 17.6953Z" fill="#00D8FF"/>
<circle cx="15.2961" cy="13.5926" r="1.32698" fill="#00D8FF"/>
</svg>
